<?xml version='1.0' encoding='utf-8'?>
<!DOCTYPE svg PUBLIC '-//W3C//DTD SVG 1.1//EN' 'http://www.w3.org/Graphics/SVG/1.1/DTD/svg11.dtd'>
<svg version="1.1" xmlns="http://www.w3.org/2000/svg" viewBox="0 0 512 512" xmlns:xlink="http://www.w3.org/1999/xlink" enable-background="new 0 0 512 512">
  <g>
    <g>
      <path fill="#a3a3a3" d="m190.5,302.8h45v45c0,11.3 9.1,20.4 20.4,20.4s20.4-9.1 20.4-20.4v-45h45c11.3,0 20.4-9.1 20.4-20.4 0-11.3-9.1-20.4-20.4-20.4h-45v-45c0-11.3-9.1-20.4-20.4-20.4s-20.4,9.1-20.4,20.4v45h-45c-11.3,0-20.4,9.1-20.4,20.4 0,11.2 9.2,20.4 20.4,20.4z"/>
      <path fill="#a3a3a3" d="M447.7,11H115.4C76,11,43.9,43.1,43.9,82.6V405c0,52.9,43.1,96,96,96h307.9c11.3,0,20.4-9.1,20.4-20.4V31.4    C468.1,20.1,459,11,447.7,11z M427.3,460.2H139.9c-30.4,0-55.2-24.8-55.2-55.2V150.2c9.3,4.4,19.7,6.9,30.7,6.9h311.9V460.2z     M427.3,116.3H116.8c-17.7,0-32.1-14.4-32.1-32.1v-0.2c0-17.7,14.4-32.1,32.1-32.1h310.5V116.3z"/>
    </g>
  </g>
</svg>
