<svg width="356" height="121" viewBox="0 0 356 121" fill="none" xmlns="http://www.w3.org/2000/svg">
<path d="M68.5258 0.00436341H125.166C130.069 -0.143998 134.761 3.52796 136.495 5.38248C140.518 9.33879 149.531 18.2529 153.394 22.2586C157.257 26.2644 158.098 31.964 158.037 34.313C158.037 47.6656 147.637 51.1274 142.437 51.1892H81.8967C78.6778 51.3746 72.24 50.0023 72.24 43.0293C72.24 36.0563 77.5636 34.1894 80.2254 34.1276H98.4246C101.21 33.8803 106.781 31.828 106.781 25.5968C106.781 19.3656 101.21 17.4369 98.4246 17.2514H91.9249C89.9936 17.2514 89.5107 16.0151 89.5107 15.3969V10.946C89.5107 8.86898 88.3965 8.34971 87.8394 8.34971H74.4685C72.9828 8.34971 72.6114 9.7097 72.6114 10.3897C72.5495 11.0697 72.4628 12.8747 72.6114 14.6551C72.76 16.4354 70.1972 17.1278 68.8973 17.2514C57.3091 19.1801 54.9073 29.0586 55.1549 33.7567V47.1092C55.1549 57.1237 45.3125 63.0581 41.5983 63.7999C38.627 64.3934 37.8842 61.5745 37.8842 60.0909V30.9749C37.8842 6.94028 58.312 0.31345 68.5258 0.00436341Z" fill="url(#paint0_linear_1026_7833)"/>
<path d="M89.5138 120.996H32.8732C27.9706 121.144 23.2784 117.472 21.5451 115.618C17.5214 111.661 8.50847 102.747 4.64577 98.7414C0.78307 94.7356 -0.0587992 89.0361 0.00309926 86.687C0.00309926 73.3345 10.4027 69.8727 15.6025 69.8109H76.1429C79.3618 69.6254 85.7997 70.9978 85.7997 77.9708C85.7997 84.9438 80.4761 86.8107 77.8143 86.8725H59.615C56.8294 87.1197 51.2582 89.172 51.2582 95.4032C51.2582 101.634 56.8294 103.563 59.615 103.749H66.1147C68.0461 103.749 68.5289 104.985 68.5289 105.603V110.054C68.5289 112.131 69.6432 112.65 70.2003 112.65H83.5712C85.0568 112.65 85.4282 111.29 85.4282 110.61C85.4901 109.93 85.5768 108.125 85.4282 106.345C85.2797 104.565 87.8424 103.872 89.1424 103.749C100.73 101.82 103.132 91.9415 102.885 87.2434V73.8908C102.885 63.8764 112.727 57.942 116.441 57.2002C119.413 56.6067 120.155 59.4256 120.155 60.9092V90.0251C120.155 114.06 99.7277 120.687 89.5138 120.996Z" fill="url(#paint1_linear_1026_7833)"/>
<path d="M184.012 36.5241C182.663 36.5241 181.05 36.4161 179.172 36.2003C177.294 35.9844 175.572 35.7206 174.007 35.4089V46.5247C175.645 46.8844 177.306 47.1363 178.991 47.2802C180.701 47.4001 182.555 47.46 184.553 47.46C188.719 47.46 192.403 46.9324 195.605 45.8772C198.808 44.798 201.312 43.0593 203.117 40.661C204.947 38.2628 205.862 35.0611 205.862 31.0561C205.862 28.1062 205.236 25.4322 203.984 23.034C202.756 20.6357 201.107 18.4773 199.036 16.5587C196.99 14.6161 194.726 12.8894 192.246 11.3785C189.79 9.84365 187.334 8.48864 184.878 7.31351L180.111 17.3501C182.784 18.5493 185.336 19.9762 187.768 21.631C190.2 23.2618 192.186 24.9406 193.727 26.6673C195.292 28.394 196.075 30.0128 196.075 31.5237C196.075 32.9627 195.437 34.0419 194.16 34.7613C192.884 35.4568 191.307 35.9245 189.429 36.1643C187.575 36.4041 185.769 36.5241 184.012 36.5241Z" fill="url(#paint2_linear_1026_7833)"/>
<path d="M225.582 16.3788C223.174 16.3788 221.08 16.9664 219.298 18.1416C217.54 19.3167 216.083 20.8276 214.928 22.6742C213.796 24.5209 212.953 26.4754 212.399 28.5379C211.846 30.6004 211.569 32.519 211.569 34.2937C211.569 38.9942 212.869 42.3758 215.469 44.4382C218.094 46.5007 221.862 47.532 226.774 47.532H229.699C229.098 48.9709 227.882 50.2899 226.052 51.4891C224.222 52.6882 222.007 53.7314 219.406 54.6188C216.83 55.5301 214.085 56.2735 211.172 56.8491L215.036 67.2095C219.587 66.3222 223.536 65.0631 226.882 63.4323C230.253 61.8255 233.034 59.727 235.225 57.1369C237.416 54.5468 239.006 51.3452 239.993 47.532H243.063V36.3802H240.715C240.498 33.9579 240.041 31.5597 239.343 29.1854C238.668 26.8112 237.717 24.6648 236.489 22.7462C235.261 20.8036 233.745 19.2567 231.939 18.1056C230.157 16.9544 228.038 16.3788 225.582 16.3788ZM226.774 36.3802C225.233 36.3802 223.933 36.2602 222.873 36.0204C221.814 35.7806 221.284 35.0611 221.284 33.862C221.284 33.0946 221.417 32.2072 221.682 31.2C221.946 30.1687 222.392 29.2694 223.018 28.5019C223.644 27.7345 224.475 27.3508 225.51 27.3508C226.473 27.3508 227.28 27.6746 227.93 28.3221C228.604 28.9696 229.146 29.773 229.555 30.7323C229.988 31.6916 230.325 32.6869 230.566 33.7181C230.807 34.7254 230.976 35.6127 231.072 36.3802H226.774Z" fill="url(#paint3_linear_1026_7833)"/>
<path d="M243.063 36.3802V47.532H298.43V36.3802H243.063Z" fill="url(#paint4_linear_1026_7833)"/>
<path d="M323.17 47.532C325.313 47.532 327.239 47.0883 328.948 46.2009C330.682 45.3136 332.151 44.2824 333.355 43.1072C334.39 44.3063 335.678 45.3496 337.219 46.2369C338.76 47.1003 340.614 47.532 342.781 47.532C346.104 47.508 348.728 46.6926 350.655 45.0858C352.581 43.455 353.953 41.3085 354.772 38.6465C355.591 35.9605 356 33.0346 356 29.8689C356 27.5666 355.831 25.2643 355.494 22.962C355.157 20.6597 354.7 18.3814 354.122 16.127L344.118 18.7171C344.551 20.4918 345.008 22.5423 345.49 24.8686C345.972 27.1709 346.212 29.1974 346.212 30.9481C346.212 31.9074 346.104 32.8068 345.887 33.6462C345.695 34.4616 345.333 35.1211 344.804 35.6247C344.298 36.1283 343.576 36.3802 342.637 36.3802C341.698 36.3802 340.927 36.1523 340.325 35.6967C339.723 35.241 339.278 34.6294 338.989 33.862C338.7 33.0706 338.519 32.2192 338.447 31.3079L337.653 21.3432L328.009 22.5303C328.082 23.3697 328.154 24.353 328.226 25.4802C328.322 26.5834 328.395 27.6026 328.443 28.5379C328.491 29.4492 328.515 30.0728 328.515 30.4085C328.515 32.4231 328.106 33.922 327.287 34.9052C326.493 35.8885 325.144 36.3802 323.242 36.3802C322.207 36.3802 321.34 36.1763 320.642 35.7686C319.943 35.3369 319.402 34.7374 319.016 33.9699C318.655 33.2025 318.438 32.3151 318.366 31.3079L317.572 21.3432L307.929 22.5303C308.001 23.3697 308.073 24.341 308.145 25.4442C308.217 26.5474 308.278 27.5666 308.326 28.5019C308.398 29.4133 308.434 30.0488 308.434 30.4085C308.434 32.7828 307.832 34.3776 306.628 35.193C305.448 35.9845 303.582 36.3802 301.03 36.3802H298.43V47.532H300.958C303.679 47.532 306.014 47.1363 307.965 46.3448C309.915 45.5534 311.576 44.4982 312.949 43.1792C314.032 44.4742 315.405 45.5294 317.066 46.3448C318.752 47.1363 320.786 47.532 323.17 47.532Z" fill="url(#paint5_linear_1026_7833)"/>
<path d="M194.558 93.2184C194.558 94.5614 193.968 95.5927 192.788 96.3121C191.632 97.0316 190.212 97.5232 188.526 97.787C186.865 98.0509 185.252 98.1828 183.687 98.1828C182.218 98.1828 180.605 98.0868 178.847 97.895C177.113 97.6791 175.5 97.3913 174.007 97.0316V108.183C175.621 108.567 177.174 108.831 178.666 108.975C180.183 109.119 182.037 109.191 184.228 109.191C186.588 109.191 188.707 108.987 190.585 108.579C192.487 108.147 194.197 107.536 195.714 106.744C197.23 105.953 198.603 105.006 199.831 103.903C200.649 104.91 201.564 105.821 202.576 106.637C203.587 107.428 204.755 108.064 206.079 108.543C207.427 108.999 209.005 109.227 210.81 109.227H212.291V98.0748H210.81C209.631 98.0748 208.679 97.6312 207.957 96.7438C207.235 95.8325 206.609 94.6813 206.079 93.2904C205.573 91.8994 204.996 90.4724 204.345 89.0095L195.208 68.0729L186.07 72.5336L193.33 88.5059C193.595 89.1054 193.86 89.8969 194.124 90.8801C194.413 91.8394 194.558 92.6188 194.558 93.2184Z" fill="url(#paint6_linear_1026_7833)"/>
<path d="M212.291 98.0748V109.227L292.687 109.211V98.0595L212.291 98.0748Z" fill="url(#paint7_linear_1026_7833)"/>
<path d="M302.403 83.1098C302.523 84.4289 302.619 85.7959 302.692 87.2108C302.764 88.6018 302.8 90.0168 302.8 91.4557C302.8 93.782 302.33 95.4728 301.391 96.528C300.452 97.5592 298.695 98.0748 296.118 98.0748H292.687V109.227H296.118C298.382 109.227 300.513 108.819 302.511 108.004C304.509 107.188 306.243 106.097 307.712 104.73C308.482 105.593 309.373 106.361 310.384 107.032C311.42 107.704 312.588 108.243 313.888 108.651C315.188 109.035 316.079 109.227 317.644 109.227V98.0748H318.258C317.006 98.0748 315.983 97.859 315.188 97.4273C314.417 96.9956 313.84 96.3721 313.454 95.5567C313.069 94.7173 312.84 93.734 312.768 92.6069L312.01 81.9587L302.403 83.1098ZM304.642 67.965L297.924 74.692L304.642 81.3831L311.396 74.692L304.642 67.965Z" fill="url(#paint8_linear_1026_7833)"/>
<path d="M341.264 89.657C342.829 89.657 344.057 90.1726 344.948 91.2039C345.839 92.2112 346.285 93.3863 346.285 94.7293C346.285 95.8085 346.044 96.8038 345.562 97.7151C345.081 98.6264 344.25 99.0821 343.07 99.0821C342.54 99.0821 341.939 98.9982 341.264 98.8303C340.59 98.6624 339.832 98.3506 338.989 97.895C338.459 97.6072 337.881 97.2475 337.255 96.8158C336.653 96.3841 336.015 95.8685 335.341 95.2689C335.702 94.5254 336.16 93.722 336.714 92.8587C337.267 91.9953 337.918 91.2519 338.664 90.6283C339.434 89.9808 340.301 89.657 341.264 89.657ZM342.998 110.054C345.935 110.054 348.355 109.383 350.257 108.04C352.184 106.673 353.616 104.838 354.555 102.536C355.518 100.209 356 97.6072 356 94.7293C356 91.9713 355.386 89.4052 354.158 87.031C352.954 84.6567 351.221 82.7381 348.957 81.2752C346.694 79.8123 344.009 79.0808 340.903 79.0808C338.736 79.0808 336.834 79.5365 335.197 80.4478C333.559 81.3591 332.115 82.5463 330.863 84.0092C329.635 85.4481 328.515 86.971 327.504 88.5778C326.517 90.1846 325.578 91.7195 324.687 93.1824C323.796 94.6214 322.893 95.7965 321.978 96.7078C321.087 97.6192 318.752 98.0748 317.644 98.0748V109.227H319.161C321.015 109.227 322.544 109.011 323.748 108.579C324.976 108.147 326.035 107.584 326.926 106.888C327.817 106.193 328.684 105.437 329.526 104.622C330.899 105.605 332.295 106.517 333.716 107.356C335.161 108.171 336.641 108.819 338.158 109.299C339.699 109.802 341.312 110.054 342.998 110.054Z" fill="url(#paint9_linear_1026_7833)"/>
<defs>
<linearGradient id="paint0_linear_1026_7833" x1="358.414" y1="27.262" x2="10.8198" y2="107.958" gradientUnits="userSpaceOnUse">
<stop stop-color="#7454FC"/>
<stop offset="1" stop-color="#9A82FA"/>
</linearGradient>
<linearGradient id="paint1_linear_1026_7833" x1="358.414" y1="27.262" x2="10.8198" y2="107.958" gradientUnits="userSpaceOnUse">
<stop stop-color="#7454FC"/>
<stop offset="1" stop-color="#9A82FA"/>
</linearGradient>
<linearGradient id="paint2_linear_1026_7833" x1="358.414" y1="27.262" x2="10.8198" y2="107.958" gradientUnits="userSpaceOnUse">
<stop stop-color="#7454FC"/>
<stop offset="1" stop-color="#9A82FA"/>
</linearGradient>
<linearGradient id="paint3_linear_1026_7833" x1="358.414" y1="27.262" x2="10.8198" y2="107.958" gradientUnits="userSpaceOnUse">
<stop stop-color="#7454FC"/>
<stop offset="1" stop-color="#9A82FA"/>
</linearGradient>
<linearGradient id="paint4_linear_1026_7833" x1="358.414" y1="27.262" x2="10.8198" y2="107.958" gradientUnits="userSpaceOnUse">
<stop stop-color="#7454FC"/>
<stop offset="1" stop-color="#9A82FA"/>
</linearGradient>
<linearGradient id="paint5_linear_1026_7833" x1="358.414" y1="27.262" x2="10.8198" y2="107.958" gradientUnits="userSpaceOnUse">
<stop stop-color="#7454FC"/>
<stop offset="1" stop-color="#9A82FA"/>
</linearGradient>
<linearGradient id="paint6_linear_1026_7833" x1="358.414" y1="27.262" x2="10.8198" y2="107.958" gradientUnits="userSpaceOnUse">
<stop stop-color="#7454FC"/>
<stop offset="1" stop-color="#9A82FA"/>
</linearGradient>
<linearGradient id="paint7_linear_1026_7833" x1="358.414" y1="27.262" x2="10.8198" y2="107.958" gradientUnits="userSpaceOnUse">
<stop stop-color="#7454FC"/>
<stop offset="1" stop-color="#9A82FA"/>
</linearGradient>
<linearGradient id="paint8_linear_1026_7833" x1="358.414" y1="27.262" x2="10.8198" y2="107.958" gradientUnits="userSpaceOnUse">
<stop stop-color="#7454FC"/>
<stop offset="1" stop-color="#9A82FA"/>
</linearGradient>
<linearGradient id="paint9_linear_1026_7833" x1="358.414" y1="27.262" x2="10.8198" y2="107.958" gradientUnits="userSpaceOnUse">
<stop stop-color="#7454FC"/>
<stop offset="1" stop-color="#9A82FA"/>
</linearGradient>
</defs>
</svg>
