<?xml version="1.0" encoding="utf-8"?>
<!-- Generator: Adobe Illustrator 19.0.0, SVG Export Plug-In . SVG Version: 6.00 Build 0)  -->
<svg version="1.1" id="layer" xmlns="http://www.w3.org/2000/svg" xmlns:xlink="http://www.w3.org/1999/xlink" x="0px" y="0px"
	 viewBox="-153 -46 652 652" style="enable-background:new -153 -46 652 652;" xml:space="preserve">
<style type="text/css">
	.st0{fill:#242633;}
</style>
<path class="st0" d="M330.4,316h-25.1l4.9,5.2v71.2l-5,5.3h25.1l-4.9-5.3v-71.1L330.4,316z M160.3,281.3L160.3,281.3
	c1.2-10.1,9.8-17.6,19.9-17.7l0,0c10.2,0,18.7,7.6,20,17.7l0,0c0.3,2.4,0.4,4.8,0.5,7.2h236.5v-2.5l-9.6-6.8c0,0-216.1,0-218.1,0
	c-2.3-14.1-14.5-25.2-29.2-25.2h0c-14.7,0-27,11.1-29.2,25.2c-2.1,0-218.1,0-218.1,0l-9.6,6.8v2.5h236.5
	C159.9,286.1,160,283.7,160.3,281.3z M416.3,316h-19.7l4.9,5.3c0,3.7,0,55,0,55l-43-60.3h-19.7l4.9,5.3c0,0,0,71.1,0,71.1l-4.9,5.3
	h19.5l-4.9-5.4v-56.7l44.1,62h18.8l-5-5.3v-71.2L416.3,316z M379.2,215.9l-4.1,1.3c-4.8,1.6-9.7,3.1-14.6,4.6
	c-1.7,0.4-3.3,0.5-5,0.3h-0.5c-0.5-0.1-1-0.2-1.4-0.5c-0.3-0.1-0.6-0.3-0.9-0.4l-0.7-0.3l-1,1.6l0.5,0.5l0.2,0.2
	c0.1,0.1,0.2,0.2,0.3,0.3c0.1,0.2,0.3,0.4,0.4,0.5c-0.2,0.1-0.4,0.2-0.6,0.3c-0.5,0.2-1,0.3-1.6,0.4c-0.8,0.2-1.5,0.4-2.2,0.7
	c-1.4,0.5-2.8,1.1-4.2,1.6c-1.3,0.5-2.5,1-3.8,1.5c-1.4,0.5-3,1.1-4.9,1.6c-4.8,1.4-9.6,2.8-14.4,4.1c-0.7,0.2-1.3,0.3-2,0.5
	l-1.3,0.3l-2,0.5c-1.2,0.3-2.5,0.7-3.7,0.9c-2.4,0.6-4.7,1.3-7.1,2.1c-1.4,0.5-2.8,0.9-4.3,1.4c-3.1,1-6.1,2.1-9.1,3.5l-1.6,0.7
	c-2.8,1.2-5.5,2.4-8.2,3.6c-1.7,0.8-3.5,1.5-5.2,2.3c-2.4,1-4.8,1.8-7.3,2.5c-2,0.6-4,1.2-5.8,1.9c-3.6,1.4-7.4,2.5-11.3,3.7
	c-2,0.6-3.9,1.5-5.9,2c-1.4,0.4-2.8,0.9-4.2,1.2c-2.6,0.7-5.4,1.6-7.8,2.3c-0.7,0.2-1.6,0.6-2.4,0.9c-1.3,0.4-2.4,0.7-3.6,1.1
	s-2.6,0.7-4,1.1c-1.4,0.3-0.7,0.1-2,0.5s-2.2,0.7-2,1.8c0.1,0.5,0.6,1,2.2,1c0,0,2.9-0.2,4.6-0.5c4.2-0.7,8.1-1.8,12.5-2.8
	c1.8-0.4,4.4-1.9,6.1-2.2s3.2-0.7,5-1.1c1.4-0.3,3.3-0.8,4.7-1.1c2.4-0.5,4.3-1.7,6.3-2.2c3.3-0.8,6.5-1.1,9.2-2.7
	c2.6-1.5,5.3-1.7,8.2-2.7c0.7-0.3,1.5-0.6,2.2-0.9l1-0.4c1.1-0.5,2.2-1,3.3-1.5c2.3-1.1,4.6-2,7.1-2.7c1.1-0.3,2.2-0.6,3.3-1
	c1.8-0.7,3.7-1.1,5.7-1.3c0.7-0.1,1.3-0.2,2-0.3l0.3-0.1c2.4-0.5,4.8-1.1,7.2-1.9c2.2-0.7,4.5-1.3,6.9-1.8l2.9-0.6
	c3-0.6,6.1-1.2,9.1-1.9c1.7-0.4,3.4-0.9,5.1-1.5c0.9-0.3,1.8-0.6,2.8-0.8c0.5-0.2,1.1-0.3,1.6-0.4c0.9-0.2,1.8-0.4,2.7-0.7
	c3-1.1,5.8-2.3,8.5-3.4l0.3-0.1c1-0.4,2.1-0.8,2.5-1.7c0.6-1,1.3-1.1,2.7-1.3c1.4-0.1,2.8-0.2,4.2-0.3c3.9-0.3,7.9-0.6,11.8-1.1
	c3.1-0.4,6.1-1,9-1.9c2.3-0.7,4.6-1.4,6.8-2.2c2.8-0.9,5.6-1.9,8.5-2.7c3.7-1,11.7-2.8,15.4-3.6c2.2-0.5,4.5-1,6.7-1.5
	c1.4-0.3,3.3-1.4,3.1-2.7c-0.1-0.8-0.5-1.6-1.1-2.1c-1-0.7-1.5-1.7-1.4-3.3c-0.1-1.1-0.9-2-1.9-2.2l-0.5-0.1
	c-1.5-0.3-3.1-0.3-4.6,0.1c-1.8,0.5-7.9,1.8-9.8,2.1c-2.9,0.5-5.7,1.2-8.5,2.2c-3.5,1.4-7.1,2.5-10.7,3.6
	C381.9,215.1,380.5,215.5,379.2,215.9L379.2,215.9z M283.4,133.5c0.1,0.2,0.2,0.4,0.4,0.5c-24.2,33.1-79.7,110.5-80.6,111.7
	s-2.2,3.3-0.6,4.2c1.6,1,3.5-1.8,3.5-1.8c19.7-25,71.2-94.3,83.1-110.3c0.2,0.1,0.4,0.1,0.6,0.2l0,0c0.5,0.1,1,0,1.4-0.1
	c0.9-0.4,1.5-1.2,1.6-2.1l0.3-3.2c0-0.3,0.2-0.5,0.4-0.7l2.1-1.4c0.1-0.1,0.2-0.1,0.2-0.2l29.6-39.5c0.8-1,1.9-1.7,3.1-1.9l1.5-0.2
	c0.9-0.1,1.6-0.7,2-1.6l0,0c0.3-0.8,0.1-1.6-0.6-2.1l-11.6-8.4c-0.7-0.5-1.6-0.4-2.2,0.1c-0.7,0.6-1,1.5-0.8,2.4l0.3,1.5
	c0.2,1.2-0.1,2.5-0.8,3.6l-27.5,40.9c-0.1,0.1-0.1,0.2-0.1,0.3L288,128c-0.1,0.3-0.3,0.5-0.5,0.6l-2.9,1.3c-0.9,0.4-1.4,1.2-1.5,2.1
	C283.1,132.6,283.2,133.1,283.4,133.5L283.4,133.5z M186.9,362.2c0,0,5.3,20.3,18.8,36.5c9.4,11.3,23.6,19.3,42.9,19.3
	c29,0,32-23.4,32-23.4h-17.1l-4.6,9l9.8-5.6l3.4,3.4c-1.3,3-7.5,8.7-19.7,8.7c-16.7,0-26.2-8.7-32.2-17.5
	c-9.4-13.8-14.1-30.3-14.1-30.3l-6-2.1l0,0c0,0,16.3-6.1,16.3-22.7c0-8.1-5-15.5-13.1-19.2c-3.3-1.6-6.8-2.4-10.5-2.4h-36.7l4.9,5.2
	v71.1l-5,5.4h25.1l-4.9-5.3v-30.2L186.9,362.2z M176.2,324.2h11.4c10.6,0,13.4,9.2,13.4,14c0,7.7-6,15.9-13.5,15.9h-11.2V324.2z
	 M193.1,244.4c0.1,0.1,0.3,0.2,0.4,0.3c0.5,0.2,1.1,0.2,1.6,0c0.9-0.4,1.6-1.4,2.1-3c0.7-2.2,1.6-5.5,2.6-8.9
	c0.8-2.7,1.6-5.6,2.4-8.3c2.2-7.3,8.6-24.7,12.1-34c1.3-3.4,2.1-5.6,2.2-6c0.1-0.4,0.2-0.9,0.3-1.3c0.4-1.5,0.8-3.1,1.4-4.6
	c0.2-0.6,0.5-1.5,0.9-2.6c2.1-6,6.5-18.6,8.6-26.4c0.2-0.8,0.5-1.6,0.8-2.3c0.4-0.8,0.7-1.7,0.9-2.6c0.2-0.7,0.4-1.4,0.6-2.1
	c0.4-1.1,0.7-2.2,0.9-3.3c0.1-0.5,0.3-1,0.5-1.5c0.4-1,1.1-2.5,2-5.1c1.1-3,3.7-10.9,5.5-16.2c0.9-2.8,1.6-4.8,1.7-5.1s0.4-1,0.9-2
	c0.7-1.6,1.8-4.1,3.2-7.4c2.4-5.7,6.9-17.2,10-25.5c1.1-3,2.2-5.7,3.2-8.2c2-4.9,3.6-9.1,4.5-12.5c1.4-5.3-3-9.6-5.1-10.1
	c-2.1-0.6-2.5,0.5-2.9,1.4l-0.1,0.2c-1.7,3.6-3.1,9.8-4.3,14.7c-0.7,3.1-1.4,5.8-1.9,7.3c-4.4,12.2-6.1,17.8-8.1,24.2
	c-0.7,2.5-1.6,5-2.6,8.1c-1.6,4.8-4.6,14-7.9,23.7c-4.2,12.4-8.5,25.2-10,30.2c-1.7,5.4-9.1,28-14.6,44.5c-3.3,10.1-6,18.2-6.3,19.3
	c-1,3.1-5,16.8-5.9,20.2C192.1,241.9,191.8,243.5,193.1,244.4z M213.4,258.2L213.4,258.2c0.5,0.9,1.7,1.2,2.6,0.6
	c0,0,0.1-0.1,0.1-0.1c14.9-10.7,126.4-89.9,133-94.6c0.7,0.2,1.5,0,2.1-0.4c0.5-0.3,0.8-0.8,1-1.3c0.9-0.5,3.5-1.9,5.3-2.8
	c1.8-0.9,14.7-9,17.2-10.2c6.2-2.1,12-6.2,8.5-13.3c-1.6-3.3-5.8-4.7-9.2-3.7c-5.3,1.6-5,7.2-5,7.8c-1.3,0.6-2.8,0.2-3.6,0.2
	c-0.2,0-0.4,0.1-0.5,0.3c-0.1,0.2-0.1,0.4-0.2,0.6c-0.1,0.6-0.5,1.2-1,1.6l-16.2,13.4c-0.7,0-1.3,0.3-1.8,0.7c-0.5,0.4-0.8,1-1,1.6
	c-5.1,3.7-117.3,86.7-131.1,97C213.1,256.3,212.9,257.4,213.4,258.2L213.4,258.2z M100.1,55.6c0.6,0.2,1.9,0.9,2.4,1.1l1.5,0.8
	l0.1,0.5c0.1,0.8,0.4,1.7,0.8,2.4c0.4,1.1,0.8,2.3,1.1,3.5c0,0.2,0.1,0.3,0.2,0.4l2.2,3.8l0.4,1.4l0.3,0.2c0.1,0.1,0.2,0.1,0.2,0.2
	c-0.2,0.3-0.4,0.6-0.4,1c0,1,0.9,2.2,1.7,3c0.9,2.1,1.6,4.2,2.1,6.3c-0.1,0.4-0.2,1.3,0.4,3.8c0.3,1,0.6,1.9,0.7,2.9
	c0.3,1.5,0.7,2.9,1.2,4.4l0.9,2.7c0.3,0.8,0.5,1.6,0.6,2.4c0,0.3,0.1,1.6,0.5,6c0,0.5,0.2,0.9,0.6,1.2l1.6,1.4
	c0.4,0.4,0.7,0.7,1,1.1c0.3,0.4,0.7,0.8,1.1,1l4.2,12.7c2.6,8.4,5.6,18,8.6,27.5c0.9,2.9,1.9,5.8,2.8,8.7c3.1,9.9,6.4,20,10.5,29.5
	l18.9,56.7c0.4,1.2,1.6,1.8,2.8,1.4c0.2,0,0.3-0.1,0.5-0.2c0.8-0.6,1.1-1.6,0.8-2.5l-16-53.5c-0.5-2.5-1.2-4.9-2.1-7.3l-0.3-0.8
	l-0.3-1c0-2.4-0.4-4.8-1.2-7.1c-1.1-2.9-2.4-5.8-3.4-8.2l-1.2-4c-1.6-6.8-3.7-14-6.3-21.9c-0.7-2.3-1.4-4-2-5.5l-8.6-28.4
	c1-0.3,1.5-1.3,1.2-2.3c0,0,0,0,0,0l-2.2-7.2c-0.1-0.3-0.3-0.6-0.5-0.8l-1.4-1.2l-0.2-0.7v-1c0-0.2,0-0.4-0.1-0.7l-3.4-8.1l0.5-1.5
	c0.2-0.4,0.2-0.8,0.1-1.2l-0.4-1.3c-0.1-0.4-0.4-0.7-0.7-1l-1.3-1.2l-0.1-0.1l-0.9-2.5l-1.4-5.6l-3.6-9.8c1-3.6,0.8-4.2,0.7-4.5
	c0-0.5,0-0.9,0-1.4c0.1-0.6,0.1-1.1,0.1-1.7c0-0.4-0.1-1.5-0.1-3c0-0.8-0.5-1.5-1.3-1.7l-1.7-0.5l-1.7-0.7l-1.4-0.4
	c-0.3-0.1-0.7-0.1-1,0l-1.7,0.5c-1.7,0.1-2.5,0.5-2.6,1.4c-0.2,0.5-0.5,0.9-0.9,1.3l-1.9,0.6l-0.2,0.1c-0.4,0.2-1.8,1.1-1.9,2.2
	c-0.1,1.1,0,2.2,0.1,3.2C98.7,54,99,55.2,100.1,55.6z M-15.8,148.6c2,0.3,3.9,1.2,5.4,2.5c1.5,1.4,5.2,2.7,6.7,3.9s4.6,3.2,6.1,3.6
	c1.5,0.4,2.8,1.2,3.7,2.4c0.7,1.1,3.1,1.3,3.1,1.3c0.7,0.7,1.4,1.3,2.1,1.9c0.8,0.5,5.5,2.9,7.1,4.5c1.6,1.6,6.7,4,10.3,7
	c2.4,2,5,3.9,7.7,5.4c1.9,1,5.1,3.6,6.9,5.1c1.8,1.5,4.7,3.2,6.5,4.8c1.8,1.6,5.7,3.8,8.6,5.7c3,1.9,6.7,5,9.1,6.5
	c2.4,1.5,7.6,4.7,9.5,6.3c1.9,1.5,8.5,6.3,11.7,8.4c3.4,2.1,6.7,4.5,9.8,7.1c2.9,2.4,11.6,7.9,19.3,13.1s24.6,17,26.9,18.5
	c2.3,1.5,3.5,0.5,3.6-0.1c0.2-0.5,0.5-1.3-1.2-3c-1.7-1.6-10.6-7.9-14.4-10.7c-3.8-2.7-14.6-11.1-17.4-13.2
	c-2.8-2-21.7-15.7-26-18.8c-4.3-3.1-10.2-7.2-13.3-9.4c-3.1-2.2-7.3-5.1-11-7.4c-3.7-2.3-5.9-5.1-11.1-8.4
	c-5.1-3.3-7.2-5.9-11.7-8.5c-4.5-2.5-6.3-4.5-8.6-6.5c-2.3-2-6.1-3.3-8.1-5.6c-2-2.3-5.8-3.6-5.8-3.6c-0.4-1.1-4.2-3.2-5.2-3.9
	s-9-8.9-12.6-11.7s-6.5-3.9-7.9-4.9s-2.2-3-6-6.8c-3.3-3.4-8.6-1.3-10.7,1.3c-2.1,2.6-2,5-0.9,8.3C-22,147.1-18,148.1-15.8,148.6z
	 M36,87.9l0.4,2.2c0.1,0.7,0.6,1.3,1.3,1.6l2.1,0.9l8.9,12.2v1.1c0,0.1,0,0.2,0,0.2c-0.1,0.3,0,0.7,0.1,1c0.4,0.8,0.8,1.5,1.4,2.2
	c0.2,0.2,0.3,0.3,0.5,0.4l2.2,1.1l4.3,5.7l1,1.8l0.2,0.3l1.5,1.6l2.9,3.9l-0.1,1c0,0.5,0.1,1.1,0.4,1.5c0.4,0.6,1,1.3,1.5,1.9
	c0.4,0.4,0.8,0.6,1.4,0.7l0.7,0.1l1.9,2.5l-0.3,1v0.1c0.4,0.8,0.9,1.6,1.5,2.3l0.1,0H71l2.9,3.9l-0.2,2v0.1c0.6,1.1,1.3,2,2.3,2.7
	l1.5,0.2l2.8,3.8c0,0.3,0,0.5,0.1,0.7c0.2,0.8,0.6,1.5,1.1,2.1c0.6,0.8,1.4,1.5,2.3,2l2.3,3.1c0.2,1.1,0.8,2.1,1.7,2.7
	c0.1,0.1,0.3,0.1,0.4,0.2l10.4,13.9l8.2,10.8c0.9,2.2,2.4,4.2,4.3,5.7c7.2,9.6,43,57,44.1,58.3c0.5,0.8,1.3,1.2,2.2,1.3
	c0.5,0,1-0.2,1.4-0.6c1-1.1,1-2.7,0-3.8c-0.4-0.6-32.6-45.3-53-74.1c-0.4-1-0.9-1.9-1.5-2.7c-1.7-2.7-3.7-5.2-5.9-7.4l-3.9-5.5
	c0-0.1,0-0.2-0.1-0.3c-0.6-1.1-1.3-2.2-2.2-3.1l-0.3-0.3c-0.4-1.3-1-2.5-1.9-3.6c-0.5-0.9-1.1-1.8-1.8-2.6l0,0l-6.2-8.6l0.3-1.4v0
	c-0.1-0.8-1.7-3.3-2.5-3.6H80l-1.3,0.1l-1.6-2.2l0.3-1.1v-0.1c0-0.3-0.1-0.6-0.3-0.9c-0.3-0.5-0.7-1.1-1-1.6
	c-0.3-0.4-0.8-0.7-1.3-0.8l-1-0.1l-3.3-4.7l0.1-1.8v0c-0.6-1-1.2-2-2-3l-2-0.7l-2.6-3.6l0,0c0.3-0.6,0.7-1.6,0.4-2.2
	c-0.5-0.9-1.3-2.2-1.8-3.2c-0.5-0.8-1.4-1.3-2.7-1.3h-0.6L49.2,89.9l-0.3-1.3c-0.1-0.6-0.5-1.2-1-1.5l-2.1-1.6l-5-7.5
	c-0.6-0.9-1.8-1.1-2.7-0.4c0,0,0,0,0,0l-4.7,3.5c-0.8,0.6-1,1.8-0.4,2.6L36,87.9z M-57.4,222.6c0.3,0.4,0.6,0.9,1,1.2
	c0.7,0.8,3.6,2.5,4.5,3c1,0.7,2.1,1.1,3.2,1.3c0.7,0.2,1.4,0.5,2.1,0.7c1.1,0.5,2.2,0.8,3.4,1c0.2,0,0.4,0,0.6,0.1
	c1.1,0.2,2.5,0.4,3.5-0.5c0.4-0.3,1.3-1.6,1.3-2.1c0-0.5-1.9,0.4-3.9-1.6c-0.4-0.4-2.5-2.2-2.6-2.7s1.3-3.2,1.8-3.2
	c0.7,0.1,1.4,0.3,2,0.6c2,0.6,3.9,1.7,5.4,3.2c2.4,2.2,5.5,3.4,8.8,3.5c14.3-1.1,29,6.8,30.3,8.1c2.1,2.1,3.8,1.5,4,1.5l0.2-0.1
	l0.1-0.1c2.9-2.8,8-1.9,8-1.9l34.7,10c2.9,1.1,5.8,1.9,8.9,2.5l78,22.8c0.2,0.1,0.4,0.1,0.6,0.1c1.2,0,2.1-1,2.1-2.2
	c0-0.3-0.1-0.5-0.2-0.8c-0.2-0.6-0.7-1-1.3-1.2c-4.9-1.6-21.9-7.4-43.1-14.2c-2.6-1.3-5.3-2.4-8.1-3.2c-2.4-0.7-4.8-1.3-7.3-1.7
	c-41.1-13.3-64.1-20.8-66.7-21.9c-2.1-0.9-2.2-1.5-2.2-1.5c-0.1-0.4,0.9-1.1,1.3-1.4s1-0.7,0.9-1.3L14,220l-0.5-0.2
	c-1-0.5-5.2-0.7-11-0.6c-7.6,0.2-33.8-3.3-38.6-10c-1-1.4-2.2-2.7-3.5-3.9c-1-0.8-1.9-1.8-2.7-2.8c-3-3.8-8.7-5.2-10.4,0.7
	c-1.3,4.6-7.1,4.7-8.2,9.3c-0.5,2,1.4,3.3,2.3,5C-58.2,219.2-58.6,221.1-57.4,222.6z M174,72.4c0.1,1.5,1.6,2.4,2.5,2.8l0.4,17.7
	l-1.9,1.8c-0.6,0.5-0.9,1.3-1,2.1c0,0.5,0,1.1,0,1.6c0.2,2.8,1.3,5.5,3.2,7.7c0.1,0.1,0.2,0.2,0.2,0.3l0.1,3.1
	c-0.2,4.4,0,8.9,0.6,13.3l0.4,8.2c-2.1,3-2.8,5.7-2.2,7.9c0.4,1.3,1.2,2.4,2.3,3.1v0.5c-0.6,4.5-0.6,9,0,13.5v12
	c-1.6,1.9-2.4,4.4-2.1,6.9c0.1,2.2,0.7,3.8,1.6,4.7c0.2,1.7,0.5,3.4,0.7,5l0.2,1l-0.4,23.2c-2.5,6.3-0.5,10.2,0.5,11.6
	c0.2,4.3,0.6,20.3,0.6,20.4c0,0.4,0.3,2,1.7,2c1.2,0,2.1-0.9,2.2-2.1c0-0.1,0-0.1,0-0.2c0.3-5.7,1-16.8,0.8-20.1
	c1-1.4,3-5.2,0.5-11.6l-0.1-3.2c0.1-1.8,0.1-3.5-0.1-5.3l-0.1-6.3c0.1-1.6,0-3.1-0.1-4.7l-0.2-5c0.2-1.4,0.3-2.9,0.3-4.3
	c0.9-0.7,1.6-2.2,1.9-4.4c0.6-2.7-0.1-5.5-1.9-7.6v-1.5c0.1-1.2,0.1-2.4,0-3.6l-0.4-20.9c1.1-0.9,1.9-2.1,2.2-3.5
	c0.5-2.3-0.3-4.8-2.4-7.6l0.1-24.3c2.2-2.7,3.4-6.1,3.4-9.6c0-0.8-0.4-1.5-1-2.1l-1.9-1.8v-0.2c0.2-2.7,0.3-5.5,0.2-8.4l0.2-9.1
	c0.9-0.4,2.4-1.4,2.5-2.8c0.1-0.7,0.3-2.7,0.7-5.6c0.3-2.2-1-4.3-3.1-5l-0.6-11.3c1.8-1.4,2.8-3.7,2.6-6c-0.3-2.1-1.6-3.8-3.5-4.7
	l3-5.1v-0.2c0-0.4,0.1-3.5-2-4.1c-1.4-0.4-2.9-0.6-4.4-0.6h-0.6c-0.9,0-1.7,0.1-2.6,0.3h-0.1l-0.7,0.2c-2.1,0.5-2,3.7-2,4.1v0.2
	l3,5.1c-1.9,0.9-3.2,2.6-3.5,4.7c-0.2,2.3,0.7,4.6,2.6,6l-0.6,11.3c-2.1,0.7-3.4,2.9-3,5.1C173.6,69.7,173.9,71.7,174,72.4z
	 M162.3,459.8l-22.3-20.9l-28-0.4c0,0-8.9,12.1-10.4,19.6c-1.5,7.8,3.9,17.8,16.7,15.2c0,0-7.4,0.2-10.3-6c-1.7-4-2.2-9.6,3.9-14.6
	c10.1-8.4,21.7-2.6,26.7,3.5c4.8,5.8,10.7,18.4,8,32.4c-3.9,20.4-17.4,31-32.2,31c-17.4,0-34.5-17.5-34.5-43.9
	c0-9.4,2.6-20.8,9.2-29.7c16.8-22.4,50.8-15.8,60.7-12.1c-10.6-6.7-22.9-10.3-35.4-10.3c-33.1-0.2-54.8,23.5-54.8,52
	c0,32.7,25.2,52.6,54.8,52.6c19.7,0,36.2-9.1,44.7-22.5c5.7-9,9.4-23.2,6.4-35.9C164.6,466.5,163.5,463.1,162.3,459.8z M228.3,479.9
	l-6.1-2.1l19.4-8.7l0,0l-3.4-2.5c0.2-0.3,9.1-10.4,9.1-10.4l-5.1,0.2c3.4-18.9-12.5-31.2-27.8-31.2H172l5,5.4V520l-5.1,5.4h29.2
	l-5-5.4v-40.7h10.7l28.3,40.6l-5,5.4h31.3l-5-5.4L228.3,479.9z M207,471h-10.8v-37.4h10.7c10.6,0,16.4,9.9,16.4,17.6
	C223.3,460.8,217.7,471,207,471L207,471z M286.3,517.1l3.9-4.2v-82.4l5.1-5.4H266l5,5.4V520l-5,5.4h64l2.2-20l-9.5,11.7L286.3,517.1
	z M508,350.8h-28.8c-7.8,0-15.7,0.5-18.6,7.2c-0.3,0.7-0.7,2.3-0.7,2.3l8.4,8.1l3.8-9.2h16.5l-4,4.2v25.2c-3.7,1.6-9.9,2.7-15.1,2.7
	c-15.1,0-31.5-13.1-31.5-34.2c0-16.9,11-34.8,31.5-34.8c9.7,0,17.8,4,21.4,7.2c2.8,2.7,5.2,5.8,7.4,9l6.5-21.5l-9.4,3.4
	c0,0-13.1-6.5-25.6-6.5c-28.2,0-47.9,17.7-47.9,43.1c-0.1,11.4,4.2,22.5,12,30.8c9.6,10.3,23.3,11.7,35.5,11.7
	c10.7-0.1,21.2-2.6,30.8-7.2v-24l7.3-8.5l-6.6-1.1L508,350.8z M392,425.1h-57.5l8.3,9.5l-10-0.8l9.5,18.3l-6.4-2.7l6.1,12.7V520
	l-5.1,5.4h51.3c16.8,0,47.4-14.3,47.4-51.1C435.4,444.9,417.6,425.1,392,425.1L392,425.1z M378.8,517.1h-21.7l3.9-4.2v-79.5h25.5
	c19.2,0,29,20.7,29,41.3C415.4,499.6,398.2,517.1,378.8,517.1z M-67.6,397.3l25.3-76l5-5.3h-20.6l4.9,5.3l-15.8,46.9l-18.2-47l5-5.3
	h-27l5,5.3l-15.1,50.6l-8.8-20.5l6.5,2.7l-12-22.9l7.4,3.1l-8.6-18.3h-25.7l15.1,26.1l-8.2-3.5l18.9,29.3l-7.9-3.3l21.2,39.6
	l4.1-5.7l19.5-63l25.8,67.5L-67.6,397.3z M61.8,326.9V316H4.9L2,335.4l10.7-11.3h33.2L2.6,386.4v11.4h59.2l2.1-18
	c0,0-9.3,9.8-9.3,9.8H19l26.8-39.1l11.5-7.7l-4.2-2.4l15-9.6L61.8,326.9z M151.6,397.7l-4.9-5.3l-25.9-71.1l4.9-5.3H98.3l4.8,5.2
	l-20.4,46h-9.3l6.6,6.3l-8.4,18.9l-5,5.3h20.8l-5-5.3l7.5-17h39.4l-3.7,3.5l4.9,13.4l-5,5.3L151.6,397.7z M93.6,367.3l15.2-34.4
	l12.6,34.4H93.6z M297.1,350.5c0-16.7-7.4-34.5-32.2-34.5h-36.8l5,5.2v60.5l-4.3,5.3h37.8C285.1,386.9,297.1,370.1,297.1,350.5z
	 M259.5,378.8h-15.1l3.8-4.1v-50.5h12.5c16.7,0,19.9,16.6,19.9,26.2C280.6,363.3,274.9,378.8,259.5,378.8z M66.7,425.1H45.2l4.8,5.4
	l-20.6,59.7L9,430.4l5.5-5.3h-30.2l4.9,5.4l-16.3,57.8L-49,430.5l4.5-5.4h-29.8l5.3,5.4l37.5,99.2l5.4-5.7l21.2-77l28.3,82.8l5-5.4
	c6.9-20,32.2-93.8,32.2-93.8L66.7,425.1z M-7.4,316h-25.1l4.9,5.2v71.2l-5,5.3h25.1l-4.9-5.3v-71.1L-7.4,316z M424.7,518.2h2.6v7.1
	h1.3v-7.1h2.6v-1.2h-6.4L424.7,518.2z M436.9,524.1l-2.8-7h-1.4v8.3h1.2v-5.7l0.4,1.2l1.9,4.6h1.2l1.9-4.6l0.4-1.2v5.7h1.2v-8.3
	h-1.4L436.9,524.1z"/>
</svg>
